<svg width="48" height="48" viewBox="0 0 48 48" fill="none" xmlns="http://www.w3.org/2000/svg">
<path fill-rule="evenodd" clip-rule="evenodd" d="M19.3208 23.8318C19.3208 22.5912 20.2135 21.5742 21.3443 21.5742C22.4751 21.5742 23.3877 22.5912 23.3678 23.8318C23.3678 25.0725 22.4751 26.0894 21.3443 26.0894C20.2334 26.0894 19.3208 25.0725 19.3208 23.8318ZM26.5615 23.8318C26.5615 22.5912 27.4542 21.5742 28.585 21.5742C29.7158 21.5742 30.6085 22.5912 30.6085 23.8318C30.6085 25.0725 29.7158 26.0894 28.585 26.0894C27.4741 26.0894 26.5615 25.0725 26.5615 23.8318Z" fill="#7289DA"/>
<path fill-rule="evenodd" clip-rule="evenodd" d="M11.0035 4.64258H37.7981C40.0576 4.64258 41.8973 6.45996 41.8973 8.71192V44.1508L37.5981 40.3975L35.1786 38.185L32.6191 35.8343L33.6789 39.4888H11.0035C8.74393 39.4888 6.9043 37.6714 6.9043 35.4195V8.71192C6.9043 6.45996 8.74393 4.64258 11.0035 4.64258ZM28.7599 28.8406C29.3598 29.5913 30.0796 30.4407 30.0796 30.4407C34.4987 30.3024 36.1984 27.4381 36.1984 27.4381C36.1984 21.0773 33.319 15.9215 33.319 15.9215C30.4396 13.788 27.7001 13.8473 27.7001 13.8473L27.4202 14.1633C30.8195 15.1906 32.3992 16.6721 32.3992 16.6721C30.3196 15.5461 28.28 14.993 26.3804 14.7757C24.9407 14.6177 23.5609 14.6572 22.3412 14.8152C22.2364 14.8152 22.1469 14.8303 22.0461 14.8473C22.0314 14.8497 22.0165 14.8522 22.0012 14.8547C21.3014 14.914 19.6017 15.1708 17.4622 16.0992C16.7223 16.4351 16.2824 16.6721 16.2824 16.6721C16.2824 16.6721 17.9421 15.1115 21.5413 14.0843L21.3414 13.8473C21.3414 13.8473 18.6019 13.788 15.7225 15.9215C15.7225 15.9215 12.8431 21.0773 12.8431 27.4381C12.8431 27.4381 14.5227 30.3024 18.9419 30.4407C18.9419 30.4407 19.6817 29.5518 20.2816 28.8011C17.7421 28.0505 16.7823 26.4701 16.7823 26.4701C16.7823 26.4701 16.9823 26.6084 17.3422 26.806C17.3622 26.8257 17.3822 26.8455 17.4222 26.8652C17.4522 26.885 17.4822 26.8998 17.5121 26.9146C17.5421 26.9294 17.5721 26.9442 17.6021 26.964C18.102 27.2406 18.6019 27.4579 19.0618 27.6356C19.8817 27.9517 20.8615 28.2678 22.0012 28.4851C23.5009 28.7616 25.2606 28.8604 27.1802 28.5048C28.12 28.3468 29.0798 28.0702 30.0796 27.6554C30.7795 27.3986 31.5593 27.0233 32.3792 26.4899C32.3792 26.4899 31.3794 28.1097 28.7599 28.8406Z" fill="#7289DA"/>
</svg>
