<svg width="32" height="39" viewBox="0 0 32 39" fill="none" xmlns="http://www.w3.org/2000/svg">
<path d="M8.5451 16.75C7.97249 16.75 7.5083 17.2142 7.5083 17.7868C7.5083 18.3594 7.97249 18.8236 8.5451 18.8236H23.9131C24.4857 18.8236 24.9499 18.3594 24.9499 17.7868C24.9499 17.2142 24.4857 16.75 23.9131 16.75H8.5451Z" fill="#39486E"/>
<path d="M7.5083 23.9333C7.5083 23.3607 7.97249 22.8965 8.5451 22.8965H23.9131C24.4857 22.8965 24.9499 23.3607 24.9499 23.9333C24.9499 24.5059 24.4857 24.9701 23.9131 24.9701H8.5451C7.97249 24.9701 7.5083 24.5059 7.5083 23.9333Z" fill="#39486E"/>
<path d="M8.5451 29.0435C7.97249 29.0435 7.5083 29.5076 7.5083 30.0803C7.5083 30.6529 7.97249 31.1171 8.5451 31.1171H17.7659C18.3385 31.1171 18.8027 30.6529 18.8027 30.0803C18.8027 29.5076 18.3385 29.0435 17.7659 29.0435H8.5451Z" fill="#39486E"/>
<path fill-rule="evenodd" clip-rule="evenodd" d="M0.592285 3.05128C0.592285 1.71917 1.677 0.613281 2.99787 0.613281H22.2012C22.5613 0.613281 22.9028 0.768938 23.181 1.00426L23.19 1.0119L30.9847 8.88379L30.9883 8.88774C31.5558 9.50822 31.8651 10.2681 31.8651 11.1157V35.5953C31.8651 36.9274 30.7804 38.0333 29.4595 38.0333H2.99787C1.677 38.0333 0.592285 36.9274 0.592285 35.5953V3.05128ZM20.8843 2.58284H2.54044V36.0228H29.917V11.7934H23.048C21.8481 11.7934 20.8843 10.8104 20.8843 9.60103V2.58284ZM28.8587 9.82386L22.7922 3.66529V9.82386H28.8587Z" fill="#39486E"/>
</svg>
