<svg width="19" height="23" viewBox="0 0 19 23" fill="none" xmlns="http://www.w3.org/2000/svg">
<path d="M5.11899 9.93213C4.6272 9.93213 4.22852 10.3308 4.22852 10.8226C4.22852 11.3144 4.6272 11.7131 5.11899 11.7131H14.0238C14.5156 11.7131 14.9142 11.3144 14.9142 10.8226C14.9142 10.3308 14.5156 9.93213 14.0238 9.93213H5.11899Z" fill="#39486E"/>
<path d="M4.22852 14.3841C4.22852 13.8923 4.6272 13.4937 5.11899 13.4937H14.0238C14.5156 13.4937 14.9142 13.8923 14.9142 14.3841C14.9142 14.8759 14.5156 15.2746 14.0238 15.2746H5.11899C4.6272 15.2746 4.22852 14.8759 4.22852 14.3841Z" fill="#39486E"/>
<path d="M5.11899 17.0557C4.6272 17.0557 4.22852 17.4543 4.22852 17.9461C4.22852 18.4379 4.6272 18.8366 5.11899 18.8366H10.4618C10.9536 18.8366 11.3523 18.4379 11.3523 17.9461C11.3523 17.4543 10.9536 17.0557 10.4618 17.0557H5.11899Z" fill="#39486E"/>
<path fill-rule="evenodd" clip-rule="evenodd" d="M0.222656 2.28441C0.222656 1.35699 0.976467 0.582031 1.90625 0.582031H13.0333C13.3267 0.582031 13.5885 0.708219 13.7882 0.877108L13.8032 0.889794L18.3327 5.46419L18.3386 5.4707C18.7142 5.88131 18.9227 6.39059 18.9227 6.95719V21.1416C18.9227 22.069 18.1688 22.8439 17.2391 22.8439H1.90625C0.976468 22.8439 0.222656 22.069 0.222656 21.1416V2.28441ZM1.93092 2.3027V21.0996H17.2144V7.63962H13.524C12.6643 7.63962 11.9806 6.93583 11.9806 6.07956V2.3027H1.93092ZM13.6655 3.34714V5.91896H16.1989L13.6655 3.34714Z" fill="#39486E"/>
</svg>
