<svg width="64" height="63" viewBox="0 0 64 63" fill="none" xmlns="http://www.w3.org/2000/svg">
<path d="M31.8178 0.323242C14.5919 0.323242 0.623535 14.6425 0.623535 32.307C0.623535 46.4383 9.56164 58.4271 21.9561 62.6563C23.5151 62.9523 24.0874 61.9625 24.0874 61.1177C24.0874 60.355 24.0585 57.8355 24.0451 55.163C15.3668 57.0977 13.5356 51.3893 13.5356 51.3893C12.1166 47.6924 10.072 46.7094 10.072 46.7094C7.24175 44.7243 10.2853 44.7651 10.2853 44.7651C13.4178 44.9908 15.0672 48.0611 15.0672 48.0611C17.8494 52.9507 22.3647 51.5371 24.1448 50.7198C24.4247 48.6527 25.2332 47.2417 26.1253 46.443C19.1966 45.6343 11.913 42.8918 11.913 30.6365C11.913 27.1446 13.1316 24.2915 15.1271 22.0516C14.8032 21.246 13.7355 17.993 15.4293 13.5875C15.4293 13.5875 18.0488 12.7279 24.0099 16.8659C26.4982 16.1573 29.1668 15.8019 31.8178 15.7897C34.4688 15.8019 37.1394 16.1573 39.6324 16.8659C45.5863 12.7279 48.2022 13.5875 48.2022 13.5875C49.9001 17.993 48.8319 21.246 48.508 22.0516C50.5081 24.2915 51.7184 27.1446 51.7184 30.6365C51.7184 42.9209 44.4209 45.6258 37.4747 46.4176C38.5936 47.4101 39.5905 49.3566 39.5905 52.3405C39.5905 56.62 39.5544 60.0642 39.5544 61.1177C39.5544 61.9688 40.1159 62.9661 41.6971 62.652C54.0848 58.4181 63.0115 46.4335 63.0115 32.307C63.0115 14.6425 49.0452 0.323242 31.8178 0.323242" fill="#1D1D1D"/>
</svg>
