<svg width="20" height="24" viewBox="0 0 20 24" fill="none" xmlns="http://www.w3.org/2000/svg">
<path fill-rule="evenodd" clip-rule="evenodd" d="M5.16229 0.546875C4.34193 0.546875 3.67822 1.23013 3.67822 2.04694V3.99463H1.71502C0.894667 3.99463 0.230957 4.67788 0.230957 5.4947V21.557C0.230957 22.3738 0.894668 23.0571 1.71502 23.0571H14.7753C15.5957 23.0571 16.2594 22.3738 16.2594 21.557V19.6093H18.2226C19.0429 19.6093 19.7067 18.9261 19.7067 18.1092V6.02716C19.7067 5.53151 19.5241 5.08581 19.1961 4.72724L19.1911 4.72167L15.3316 0.823706L15.3155 0.810045C15.1388 0.660572 14.9047 0.546875 14.6402 0.546875H5.16229ZM14.7043 19.6093H5.16229C4.34193 19.6093 3.67822 18.9261 3.67822 18.1092V5.56027H1.78603V21.4712H14.7043V19.6093ZM5.2333 18.0235V2.11252H13.6935V5.2796C13.6935 6.0358 14.2975 6.65845 15.0581 6.65845H18.1516V18.0235H5.2333ZM15.2287 5.09281V3.07417L17.2171 5.09281H15.2287Z" fill="#39486E"/>
</svg>
