<svg width="27" height="27" viewBox="0 0 27 27" fill="none" xmlns="http://www.w3.org/2000/svg">
<path d="M13.7141 0.529785C6.57327 0.529785 0.769043 6.33402 0.769043 13.4749C0.769043 20.6157 6.57327 26.42 13.7141 26.42C20.855 26.42 26.6592 20.6157 26.6592 13.4749C26.6592 6.33402 20.855 0.529785 13.7141 0.529785ZM13.7141 1.96813C20.0777 1.96813 25.2209 7.11136 25.2209 13.4749C25.2209 19.8384 20.0777 24.9816 13.7141 24.9816C7.35061 24.9816 2.20739 19.8384 2.20739 13.4749C2.20739 7.11136 7.35061 1.96813 13.7141 1.96813ZM13.7141 6.28316C11.3707 6.28316 9.3991 8.25478 9.3991 10.5982C9.39775 10.6935 9.41536 10.7881 9.4509 10.8765C9.48644 10.965 9.53919 11.0455 9.60611 11.1133C9.67302 11.1812 9.75276 11.2351 9.84068 11.2719C9.92861 11.3087 10.023 11.3276 10.1183 11.3276C10.2136 11.3276 10.3079 11.3087 10.3959 11.2719C10.4838 11.2351 10.5635 11.1812 10.6304 11.1133C10.6974 11.0455 10.7501 10.965 10.7856 10.8765C10.8212 10.7881 10.8388 10.6935 10.8374 10.5982C10.8374 9.08317 12.1991 7.7215 13.7141 7.7215C15.2291 7.7215 16.5908 9.08317 16.5908 10.5982C16.6017 11.8452 15.9271 12.4719 15.0401 13.2614C14.5966 13.6561 14.1185 14.0591 13.7141 14.5873C13.3097 15.1156 12.995 15.7938 12.995 16.5988V17.0707C12.9936 17.166 13.0112 17.2606 13.0468 17.3491C13.0823 17.4375 13.1351 17.518 13.202 17.5859C13.2689 17.6537 13.3486 17.7076 13.4365 17.7444C13.5245 17.7812 13.6188 17.8001 13.7141 17.8001C13.8094 17.8001 13.9038 17.7812 13.9917 17.7444C14.0796 17.7076 14.1594 17.6537 14.2263 17.5859C14.2932 17.518 14.346 17.4375 14.3815 17.3491C14.417 17.2606 14.4347 17.166 14.4333 17.0707V16.5988C14.4333 16.1364 14.5751 15.8218 14.8491 15.4638C15.1231 15.1059 15.5365 14.7372 15.9953 14.3289C16.9107 13.5141 18.0398 12.4058 18.0292 10.5982C18.0292 10.5944 18.0292 10.5907 18.0292 10.587C18.0228 8.24854 16.0537 6.28316 13.7141 6.28316ZM13.7141 18.8687C13.1183 18.8687 12.6354 19.3516 12.6354 19.9474C12.6354 20.5432 13.1183 21.0262 13.7141 21.0262C14.3099 21.0262 14.7929 20.5432 14.7929 19.9474C14.7929 19.3516 14.3099 18.8687 13.7141 18.8687Z" fill="#39486E"/>
</svg>
