<svg width="27" height="26" viewBox="0 0 27 26" fill="none" xmlns="http://www.w3.org/2000/svg">
<path fill-rule="evenodd" clip-rule="evenodd" d="M13.6048 0.0302734C6.4639 0.0302734 0.659668 5.83451 0.659668 12.9754C0.659668 20.1162 6.4639 25.9205 13.6048 25.9205C20.7456 25.9205 26.5498 20.1162 26.5498 12.9754C26.5498 5.83451 20.7456 0.0302734 13.6048 0.0302734ZM9.28964 10.0987C9.28964 7.75531 11.2613 5.78369 13.6047 5.78369C15.9443 5.78369 17.9133 7.74907 17.9197 10.0875V10.0987C17.9304 11.9063 16.8013 13.0147 15.8858 13.8294C15.427 14.2377 15.0136 14.6065 14.7396 14.9644C14.4656 15.3223 14.3238 15.637 14.3238 16.0993V16.5713C14.3252 16.6666 14.3076 16.7612 14.272 16.8496C14.2365 16.9381 14.1837 17.0185 14.1168 17.0864C14.0499 17.1543 13.9702 17.2082 13.8823 17.245C13.7943 17.2817 13.7 17.3007 13.6047 17.3007C13.5094 17.3007 13.415 17.2817 13.3271 17.245C13.2392 17.2082 13.1594 17.1543 13.0925 17.0864C13.0256 17.0185 12.9728 16.9381 12.9373 16.8496C12.9018 16.7612 12.8841 16.6666 12.8855 16.5713V16.0993C12.8855 15.2943 13.2003 14.6161 13.6047 14.0879C13.9666 13.6151 14.3875 13.2427 14.7899 12.8867C14.8371 12.8449 14.8841 12.8034 14.9306 12.7619C15.8177 11.9725 16.4922 11.3457 16.4814 10.0987C16.4814 8.58371 15.1197 7.22203 13.6047 7.22203C12.0897 7.22203 10.728 8.5837 10.728 10.0987C10.7293 10.194 10.7117 10.2886 10.6762 10.3771C10.6406 10.4655 10.5879 10.546 10.521 10.6139C10.4541 10.6817 10.3743 10.7356 10.2864 10.7724C10.1985 10.8092 10.1041 10.8281 10.0088 10.8281C9.9135 10.8281 9.81914 10.8092 9.73122 10.7724C9.6433 10.7356 9.56356 10.6817 9.49665 10.6139C9.42973 10.546 9.37697 10.4655 9.34144 10.3771C9.3059 10.2886 9.28829 10.194 9.28964 10.0987ZM12.5259 19.448C12.5259 18.8522 13.0089 18.3692 13.6047 18.3692C14.2005 18.3692 14.6834 18.8522 14.6834 19.448C14.6834 20.0437 14.2005 20.5267 13.6047 20.5267C13.0089 20.5267 12.5259 20.0437 12.5259 19.448Z" fill="#39486E"/>
</svg>
