<svg width="10" height="15" viewBox="0 0 10 15" fill="none" xmlns="http://www.w3.org/2000/svg">
<path d="M4.71452 0.135742C2.37112 0.135742 0.399486 2.10736 0.399486 4.45077C0.398138 4.54607 0.415745 4.64069 0.451282 4.72912C0.486819 4.81756 0.539577 4.89805 0.606492 4.96592C0.673407 5.03378 0.753143 5.08768 0.841067 5.12446C0.928991 5.16124 1.02335 5.18019 1.11866 5.18019C1.21397 5.18019 1.30832 5.16124 1.39625 5.12446C1.48417 5.08768 1.56391 5.03378 1.63082 4.96592C1.69774 4.89805 1.7505 4.81756 1.78603 4.72912C1.82157 4.64069 1.83918 4.54607 1.83783 4.45077C1.83783 2.93575 3.19952 1.57409 4.71452 1.57409C6.22952 1.57409 7.5912 2.93576 7.5912 4.45077C7.60204 5.69774 6.92753 6.32453 6.04049 7.11395C5.59697 7.50871 5.11891 7.91166 4.71452 8.43993C4.31012 8.96816 3.99534 9.64639 3.99534 10.4514V10.9233C3.994 11.0186 4.0116 11.1132 4.04714 11.2017C4.08268 11.2901 4.13544 11.3706 4.20235 11.4385C4.26927 11.5063 4.349 11.5602 4.43692 11.597C4.52485 11.6338 4.61921 11.6527 4.71452 11.6527C4.80982 11.6527 4.90418 11.6338 4.99211 11.597C5.08003 11.5602 5.15977 11.5063 5.22668 11.4385C5.2936 11.3706 5.34635 11.2901 5.38189 11.2017C5.41743 11.1132 5.43503 11.0186 5.43369 10.9233V10.4514C5.43369 9.98901 5.57547 9.67435 5.84946 9.31642C6.12345 8.95852 6.53687 8.58975 6.99564 8.18147C7.91113 7.36672 9.04021 6.25836 9.02954 4.45077C9.02954 4.447 9.02956 4.44331 9.02954 4.43953C9.02318 2.10112 7.05412 0.135742 4.71452 0.135742ZM4.71452 12.7212C4.11873 12.7212 3.63576 13.2042 3.63576 13.8C3.63576 14.3958 4.11873 14.8788 4.71452 14.8788C5.3103 14.8788 5.79327 14.3958 5.79327 13.8C5.79327 13.2042 5.3103 12.7212 4.71452 12.7212Z" fill="#39486E"/>
</svg>
