<svg width="21" height="21" viewBox="0 0 21 21" fill="none" xmlns="http://www.w3.org/2000/svg">
<path fill-rule="evenodd" clip-rule="evenodd" d="M12.4258 6.36433C12.4258 5.08594 13.4639 4.04785 14.7423 4.04785C16.0206 4.04785 17.0587 5.08594 17.0587 6.36433C17.0587 7.64272 16.0206 8.68081 14.7423 8.68081C13.4639 8.68081 12.4258 7.64272 12.4258 6.36433ZM15.5144 6.36433C15.5144 5.9381 15.1685 5.59217 14.7423 5.59217C14.316 5.59217 13.9701 5.9381 13.9701 6.36433C13.9701 6.79056 14.316 7.13649 14.7423 7.13649C15.1685 7.13649 15.5144 6.79056 15.5144 6.36433Z" fill="#39486E"/>
<path fill-rule="evenodd" clip-rule="evenodd" d="M8.56437 6.36429C8.56437 6.511 8.56939 6.65694 8.57982 6.80133L1.52112 13.8596C1.08678 14.294 0.842773 14.8835 0.842773 15.4978V17.9463C0.842773 19.2258 1.87978 20.2628 3.15925 20.2632H6.24789C6.45252 20.2632 6.64903 20.1817 6.79381 20.0369C6.93859 19.8921 7.02005 19.6956 7.02005 19.491V17.1745H9.33653C9.76315 17.1745 10.1087 16.829 10.1087 16.4024V14.0859H12.4252C12.6298 14.0859 12.8263 14.0044 12.9711 13.8596L14.3046 12.5261C14.449 12.5366 14.5949 12.5416 14.7417 12.5416C18.1511 12.5416 20.9189 9.77376 20.9189 6.36429C20.9189 2.95482 18.1511 0.187012 14.7417 0.187012C11.3322 0.187012 8.56437 2.95482 8.56437 6.36429ZM13.4718 11.1752L12.1055 12.5416H9.33653C8.90991 12.5416 8.56437 12.8871 8.56437 13.3137V15.6302H6.24789C5.82127 15.6302 5.47573 15.9758 5.47573 16.4024V18.7188H3.15925C2.73263 18.7185 2.38709 18.3729 2.38709 17.9467V15.4978C2.38709 15.2928 2.46856 15.0966 2.61334 14.9519C4.27271 13.2921 9.93071 7.63411 9.93071 7.63411C10.101 7.46423 10.182 7.22409 10.15 6.98549C10.1226 6.78242 10.1087 6.57509 10.1087 6.36429C10.1087 3.80728 12.1846 1.73133 14.7417 1.73133C17.2987 1.73133 19.3746 3.80728 19.3746 6.36429C19.3746 8.9213 17.2987 10.9972 14.7417 10.9972C14.5309 10.9972 14.3235 10.9834 14.1204 10.9559C13.8819 10.9239 13.6417 11.005 13.4718 11.1752Z" fill="#39486E"/>
</svg>
