<svg width="36" height="37" viewBox="0 0 36 37" fill="none" xmlns="http://www.w3.org/2000/svg">
<path fill-rule="evenodd" clip-rule="evenodd" d="M24.8107 7.57422C22.7243 7.57422 21.0298 9.26874 21.0298 11.3551C21.0298 13.4415 22.7243 15.1361 24.8107 15.1361C26.8971 15.1361 28.5916 13.4415 28.5916 11.3551C28.5916 9.26874 26.8971 7.57422 24.8107 7.57422ZM23.0171 11.3551C23.0171 10.3649 23.8205 9.5615 24.8107 9.5615C25.8009 9.5615 26.6043 10.3649 26.6043 11.3551C26.6043 12.3453 25.8009 13.1488 24.8107 13.1488C23.8205 13.1488 23.0171 12.3453 23.0171 11.3551Z" fill="#39486E"/>
<path fill-rule="evenodd" clip-rule="evenodd" d="M24.81 0.605957C18.8773 0.605957 14.0609 5.42237 14.0609 11.3551C14.0609 11.6108 14.0697 11.8646 14.0878 12.1151L14.1009 12.2974L1.23166 25.166C0.522821 25.8748 0.124512 26.8371 0.124512 27.8398V32.259C0.124512 34.3473 1.81702 36.0399 3.90543 36.0406H9.4791C9.74221 36.0406 9.99608 35.9358 10.1825 35.7494C10.3688 35.5631 10.4736 35.3101 10.4736 35.047V30.466H15.0546C15.6036 30.466 16.0482 30.0215 16.0482 29.4724V24.8915H20.6291C20.8922 24.8915 21.1452 24.7867 21.3316 24.6003L23.8677 22.0642L24.05 22.0774C24.3006 22.0955 24.5543 22.1042 24.81 22.1042C30.7427 22.1042 35.5592 17.2878 35.5592 11.3551C35.5592 5.42237 30.7427 0.605957 24.81 0.605957ZM16.0482 11.3551C16.0482 6.51913 19.9741 2.59324 24.81 2.59324C29.646 2.59324 33.5719 6.51913 33.5719 11.3551C33.5719 16.191 29.646 20.1169 24.81 20.1169C24.4121 20.1169 24.0201 20.0907 23.6356 20.0388C23.3284 19.9975 23.0195 20.102 22.8014 20.3207L20.2178 22.9042H15.0546C14.5055 22.9042 14.0609 23.3488 14.0609 23.8978V28.4788H9.47999C8.93092 28.4788 8.48635 28.9233 8.48635 29.4724V34.0533H3.90543C2.91502 34.0524 2.11179 33.2501 2.11179 32.2597V27.8398C2.11179 27.3634 2.30112 26.9078 2.63729 26.5716C4.13479 25.0738 7.43648 21.7719 10.3638 18.8445L15.8444 13.3638C16.063 13.1457 16.1675 12.8369 16.1264 12.5298L16.0482 11.3551Z" fill="#39486E"/>
</svg>
