<svg width="165" height="26" viewBox="0 0 165 26" fill="none" xmlns="http://www.w3.org/2000/svg">
<path d="M15.3479 15.5055C15.3479 13.1581 16.4734 11.7753 18.6278 11.7753C20.6537 11.7753 21.329 13.2224 21.329 15.0874V25.0881H25.8952V14.5729C25.8952 10.6499 23.8372 7.85224 19.7855 7.85224C17.3738 7.85224 15.6695 8.59184 14.1903 10.2318C13.2256 8.75262 11.5856 7.85224 9.30249 7.85224C6.89076 7.85224 5.21862 8.84909 4.44687 10.2961V8.23812H0.234375V25.0881H4.80059V15.409C4.80059 13.1581 5.95822 11.7753 8.08054 11.7753C10.1064 11.7753 10.7817 13.2224 10.7817 15.0874V25.0881H15.3479V15.5055Z" fill="#000"/>
<path d="M44.6376 17.9815C44.6376 17.9815 44.7019 17.3705 44.7019 16.6309C44.7019 11.6467 41.3255 7.85224 36.3413 7.85224C31.357 7.85224 27.8841 11.6467 27.8841 16.6309C27.8841 21.8081 31.3892 25.474 36.3734 25.474C40.2644 25.474 43.3514 23.1265 44.3482 19.718H39.7498C39.2032 20.9399 37.8848 21.5509 36.502 21.5509C34.2189 21.5509 32.7397 20.2968 32.4182 17.9815H44.6376ZM36.3091 11.5181C38.4314 11.5181 39.8142 12.8043 40.1357 14.7016H32.4825C32.8684 12.7722 34.2189 11.5181 36.3091 11.5181Z" fill="#000"/>
<path d="M45.3752 12.1612H47.4011V25.0881H51.9673V8.23812H45.3752V12.1612ZM49.6842 6.05148C51.292 6.05148 52.4496 4.92601 52.4496 3.31819C52.4496 1.71037 51.292 0.552734 49.6842 0.552734C48.0764 0.552734 46.9187 1.71037 46.9187 3.31819C46.9187 4.92601 48.0764 6.05148 49.6842 6.05148Z" fill="#000"/>
<path d="M61.4225 21.165C61.2939 21.165 61.101 21.1972 60.8115 21.1972C59.7825 21.1972 59.6539 20.7148 59.6539 20.0074V0.970767H55.0877V20.3289C55.0877 23.6732 56.374 25.1524 60.0076 25.1524C60.6186 25.1524 61.1974 25.0881 61.4225 25.0559V21.165Z" fill="#000"/>
<path d="M61.942 12.1612H63.9679V25.0881H68.5341V8.23812H61.942V12.1612ZM66.251 6.05148C67.8588 6.05148 69.0165 4.92601 69.0165 3.31819C69.0165 1.71037 67.8588 0.552734 66.251 0.552734C64.6432 0.552734 63.4856 1.71037 63.4856 3.31819C63.4856 4.92601 64.6432 6.05148 66.251 6.05148Z" fill="#000"/>
<path d="M77.7012 25.2649C82.1387 25.2649 84.2289 22.9175 84.2289 20.4415C84.2289 13.56 74.0996 17.3866 74.0996 12.8525C74.0996 11.3733 75.3537 10.1192 77.8941 10.1192C80.4988 10.1192 81.7207 11.5341 81.9137 13.3027H84.1968C84.0038 11.0839 82.4925 8.12554 77.9584 8.12554C74.0675 8.12554 71.8808 10.4408 71.8808 12.949C71.8808 19.6697 82.0101 15.8109 82.0101 20.5058C82.0101 22.1457 80.4666 23.2712 77.7012 23.2712C74.8714 23.2712 73.4565 21.8563 73.2957 19.7662H70.9805C71.1734 22.6281 72.9742 25.2649 77.7012 25.2649Z" fill="#000"/>
<path d="M102.362 17.3544C102.362 17.3544 102.394 16.8399 102.394 16.4862C102.394 11.8557 99.4037 8.12554 94.516 8.12554C89.596 8.12554 86.4769 12.1451 86.4769 16.6791C86.4769 21.2775 89.3709 25.2649 94.5481 25.2649C98.439 25.2649 101.14 22.8853 102.105 19.7662H99.7253C99.0179 21.7599 97.0885 23.2069 94.5803 23.2069C91.1395 23.2069 88.9851 20.6665 88.76 17.3544H102.362ZM94.516 10.1836C97.7316 10.1836 99.8218 12.338 100.111 15.4894H88.8243C89.2102 12.4667 91.3325 10.1836 94.516 10.1836Z" fill="#000"/>
<path d="M116.568 17.0972V18.6407C116.568 21.4383 114.542 23.3677 110.651 23.3677C108.239 23.3677 106.921 22.3708 106.921 20.2164C106.921 19.123 107.436 18.287 108.239 17.8368C109.076 17.3866 110.201 17.0972 116.568 17.0972ZM110.394 25.2649C113.224 25.2649 115.507 24.3645 116.664 22.4995V24.879H118.851V14.1709C118.851 10.5373 116.761 8.12554 112.034 8.12554C107.5 8.12554 105.506 10.4086 105.088 13.3349H107.307C107.757 11.0196 109.526 10.0871 111.937 10.0871C115.024 10.0871 116.568 11.3733 116.568 14.1388V15.2C111.391 15.2 109.236 15.2964 107.629 15.9396C105.763 16.6791 104.67 18.3191 104.67 20.2807C104.67 23.1426 106.503 25.2649 110.394 25.2649Z" fill="#000"/>
<path d="M131.333 8.38279C131.333 8.38279 130.947 8.35064 130.787 8.35064C127.764 8.35064 126.156 9.9263 125.545 11.0518V8.51142H123.359V24.879H125.642V15.5858C125.642 12.1773 127.732 10.5051 130.529 10.5051C130.947 10.5051 131.333 10.5373 131.333 10.5373V8.38279Z" fill="#000"/>
<path d="M131.723 16.7113C131.723 21.181 134.81 25.2649 139.794 25.2649C144.232 25.2649 146.805 22.3065 147.448 19.0587H145.132C144.457 21.5991 142.592 23.2069 139.794 23.2069C136.354 23.2069 134.038 20.4736 134.038 16.7113C134.038 12.9168 136.354 10.1836 139.794 10.1836C142.592 10.1836 144.457 11.7914 145.132 14.3317H147.448C146.805 11.0839 144.232 8.12554 139.794 8.12554C134.81 8.12554 131.723 12.2094 131.723 16.7113Z" fill="#000"/>
<path d="M152.823 0.761719H150.539V24.879H152.823V15.2C152.823 11.8557 154.977 10.1192 157.743 10.1192C160.669 10.1192 162.051 11.92 162.051 14.8784V24.879H164.335V14.4282C164.335 10.7945 162.18 8.12554 158.128 8.12554C155.074 8.12554 153.401 9.79768 152.823 10.7945V0.761719Z" fill="#000"/>
</svg>
