<svg width="262" height="36" viewBox="0 0 262 36" fill="none" xmlns="http://www.w3.org/2000/svg">
<path d="M34.8441 3.18678H28.9596L17.7043 20.1388L6.40228 3.18678H0.564453V34.9426H8.45719L8.41049 18.9246L15.5093 29.8991V29.9458H19.8993V29.8991L26.9514 19.018V34.9426H34.8441V3.18678Z" fill="black"/>
<path d="M62.7777 23.1276C62.7777 16.3094 57.7805 11.7795 51.1954 11.7795C43.9565 11.7795 39.1462 16.7297 39.1462 23.5946C39.1462 30.5062 44.0967 35.4563 51.5224 35.4563C57.1267 35.4563 61.47 32.5142 62.5442 27.8443H55.0718C54.4179 28.8717 53.2037 29.4788 51.6158 29.4788C48.7202 29.4788 47.1323 27.891 46.5252 25.8362H62.6843L62.6376 25.6961C62.7777 24.8555 62.7777 23.9682 62.7777 23.1276ZM51.1954 17.617C53.624 17.617 55.2586 18.9246 55.6789 21.3997H46.4318C46.9922 19.1114 48.6268 17.617 51.1954 17.617Z" fill="black"/>
<path d="M70.713 8.74406C73.1416 8.74406 75.1498 6.92277 75.1498 4.49438C75.1498 2.01929 73.1416 0.197998 70.713 0.197998C68.2378 0.197998 66.2763 2.01929 66.2763 4.49438C66.2763 6.92277 68.2378 8.74406 70.713 8.74406ZM74.5426 12.2932H66.9768V34.9426H74.5426V12.2932Z" fill="black"/>
<path d="M87.381 1.78579H79.8152V34.9426H87.381V1.78579Z" fill="black"/>
<path d="M96.4898 8.74406C98.9183 8.74406 100.927 6.92277 100.927 4.49438C100.927 2.01929 98.9183 0.197998 96.4898 0.197998C94.0145 0.197998 92.053 2.01929 92.053 4.49438C92.053 6.92277 94.0145 8.74406 96.4898 8.74406ZM100.319 12.2932H92.7536V34.9426H100.319V12.2932Z" fill="black"/>
<path d="M118.762 2.48629C111.29 2.48629 106.152 6.50247 106.152 12.8536C106.152 17.8972 109.095 20.8393 115.353 22.1936L120.583 23.3611C123.292 23.8748 123.946 24.9956 123.946 26.0697C123.946 27.7976 122.405 28.8717 119.463 28.8717C115.726 28.8717 113.298 27.1905 112.784 24.3885H104.891C105.639 32.2341 112.084 35.5964 119.229 35.5964C127.169 35.5964 132.399 31.627 132.399 25.2758C132.399 19.8119 128.616 17.4769 122.825 16.216L118.388 15.1886C116.007 14.6749 114.746 13.9277 114.746 12.1998C114.746 10.1451 116.567 9.02426 119.276 9.02426C122.498 9.02426 123.993 10.6587 124.413 13.0404H132.353C131.559 4.49438 123.899 2.48629 118.762 2.48629Z" fill="black"/>
<path d="M159.282 23.1276C159.282 16.3094 154.285 11.7795 147.7 11.7795C140.461 11.7795 135.65 16.7297 135.65 23.5946C135.65 30.5062 140.601 35.4563 148.027 35.4563C153.631 35.4563 157.974 32.5142 159.048 27.8443H151.576C150.922 28.8717 149.708 29.4788 148.12 29.4788C145.225 29.4788 143.637 27.891 143.029 25.8362H159.189L159.142 25.6961C159.282 24.8555 159.282 23.9682 159.282 23.1276ZM147.7 17.617C150.128 17.617 151.763 18.9246 152.183 21.3997H142.936C143.497 19.1114 145.131 17.617 147.7 17.617Z" fill="black"/>
<path d="M187.436 12.2932H179.87V13.5074C178.189 12.4333 176.134 11.7795 173.659 11.7795C167.541 11.7795 162.404 16.8231 162.404 23.5946C162.404 30.3194 167.541 35.4096 173.659 35.4096C176.134 35.4096 178.189 34.7558 179.87 33.6817V34.9426H187.436V12.2932ZM175.153 29.1986C172.071 29.1986 169.829 26.7235 169.829 23.5946C169.829 20.4657 172.071 17.9439 175.153 17.9439C176.835 17.9439 178.469 18.4576 179.87 20.0921V27.0971C178.469 28.7316 176.835 29.1986 175.153 29.1986Z" fill="black"/>
<path d="M207.921 11.9196C204.559 11.9196 202.13 12.9937 200.122 14.7216V12.2932H192.556V34.9426H200.122V22.0068C201.896 20.2322 204.232 19.2515 207.921 19.1114V11.9196Z" fill="black"/>
<path d="M222.357 29.0585C219.135 29.0585 217.173 26.6768 217.173 23.5946C217.173 20.5124 219.135 18.1774 222.357 18.1774C224.692 18.1774 226.42 19.5317 226.794 21.5865H233.939C233.426 15.749 228.615 11.7795 222.357 11.7795C215.212 11.7795 209.981 16.7297 209.981 23.5946C209.981 30.5062 215.212 35.4563 222.357 35.4563C228.615 35.4563 233.426 31.4869 233.939 25.6494H226.794C226.42 27.7042 224.692 29.0585 222.357 29.0585Z" fill="black"/>
<path d="M251.768 11.5927C249.34 11.5927 247.331 12.3866 245.51 13.8343V1.78579H237.944V34.9426H245.51V20.7459C246.818 19.2515 248.312 18.4576 249.713 18.4576C252.188 18.4576 253.823 19.9987 253.823 23.221V34.9426H261.436V22.0068C261.436 15.5622 257.513 11.5927 251.768 11.5927Z" fill="black"/>
</svg>
