<svg width="76" height="76" viewBox="0 0 76 76" fill="none" xmlns="http://www.w3.org/2000/svg">
<path d="M14.869 19.7998C19.2833 9.40039 31.2922 4.54847 41.6917 8.96278L56.2947 15.1614C66.6942 19.5757 71.5461 31.5846 67.1318 41.9841L60.9332 56.5871C56.5189 66.9866 44.5099 71.8385 34.1105 67.4242L19.5074 61.2256C9.10799 56.8113 4.25608 44.8023 8.67039 34.4029L14.869 19.7998Z" fill="url(#paint0_linear)"/>
<path fill-rule="evenodd" clip-rule="evenodd" d="M13.3409 48.5841C10.2141 41.2178 8.65071 37.5347 8.55533 34.1228C8.41471 29.0925 10.3787 24.2315 13.9742 20.7107C16.4129 18.3227 20.096 16.7593 27.4623 13.6325C34.8286 10.5057 38.5117 8.94227 41.9236 8.84689C46.9539 8.70627 51.8149 10.6702 55.3357 14.2657C57.7237 16.7044 59.2871 20.3876 62.4139 27.7539C65.5408 35.1202 67.1042 38.8033 67.1995 42.2152C67.3402 47.2455 65.3762 52.1065 61.7807 55.6273C59.342 58.0153 55.6589 59.5787 48.2926 62.7055C40.9263 65.8323 37.2431 67.3957 33.8312 67.4911C28.801 67.6317 23.94 65.6678 20.4192 62.0723C18.0311 59.6336 16.4677 55.9504 13.3409 48.5841Z" fill="url(#paint1_linear)"/>
<path fill-rule="evenodd" clip-rule="evenodd" d="M46.0932 28C50.8111 28 54.3089 31.4571 54.3089 37.0698V48.3359H47.6794V38.1273C47.6794 35.3209 46.3372 33.9788 44.1409 33.9788C43.1241 33.9788 42.1073 34.4262 41.1312 35.6056C41.1719 36.0937 41.2125 36.5818 41.2125 37.0698V48.3359H34.6237V38.1273C34.6237 35.3209 33.2408 33.9788 31.0852 33.9788C30.0684 33.9788 29.0923 34.4668 28.1162 35.7277V48.3359H21.5273V28.6101H28.1162V29.7896C29.4584 28.6508 30.8412 28 33.0375 28C35.5185 28 37.6334 28.9355 39.0976 30.6437C41.1719 28.8134 43.1648 28 46.0932 28Z" fill="white"/>
<defs>
<linearGradient id="paint0_linear" x1="-10.6203" y1="15.7761" x2="16.3719" y2="88.9131" gradientUnits="userSpaceOnUse">
<stop stop-color="#E41359"/>
<stop offset="1" stop-color="#F23C79"/>
</linearGradient>
<linearGradient id="paint1_linear" x1="2.92578" y1="24.0476" x2="23.7561" y2="73.1207" gradientUnits="userSpaceOnUse">
<stop stop-color="#24222F"/>
<stop offset="1" stop-color="#2B2937"/>
</linearGradient>
</defs>
</svg>
