<svg width="26" height="22" viewBox="0 0 26 22" fill="none" xmlns="http://www.w3.org/2000/svg">
<path d="M24.521 0.0166016H1.629C1.39548 0.0166016 1.17154 0.109365 1.00642 0.274483C0.841298 0.439602 0.748535 0.663551 0.748535 0.897065V20.2673C0.748535 20.5008 0.841298 20.7247 1.00642 20.8898C1.17154 21.055 1.39548 21.1477 1.629 21.1477H24.521C24.7546 21.1477 24.9785 21.055 25.1436 20.8898C25.3087 20.7247 25.4015 20.5008 25.4015 20.2673V0.897065C25.4015 0.663551 25.3087 0.439602 25.1436 0.274483C24.9785 0.109365 24.7546 0.0166016 24.521 0.0166016V0.0166016ZM18.4546 12.5368L20.9992 9.34951L23.6406 12.6512V18.0485L18.4546 12.5368ZM2.50946 1.77753H23.6406V9.83377L21.6859 7.39488C21.6034 7.29205 21.4989 7.20906 21.38 7.15203C21.2612 7.095 21.131 7.06539 20.9992 7.06539C20.8674 7.06539 20.7372 7.095 20.6183 7.15203C20.4995 7.20906 20.3949 7.29205 20.3124 7.39488L17.2308 11.2425L11.0676 4.69186C10.9857 4.60601 10.8874 4.53759 10.7785 4.49068C10.6695 4.44378 10.5522 4.41937 10.4336 4.41892C10.3148 4.41589 10.1966 4.43695 10.0861 4.48083C9.97568 4.52472 9.87524 4.59051 9.79089 4.67425L2.50946 11.9469V1.77753ZM2.50946 19.3868V14.4298L10.4336 6.57605L22.4872 19.3868H2.50946ZM16.5969 7.94077C16.0745 7.94077 15.5638 7.78585 15.1294 7.49562C14.695 7.20538 14.3565 6.79285 14.1565 6.3102C13.9566 5.82755 13.9043 5.29645 14.0062 4.78407C14.1082 4.27169 14.3597 3.80104 14.7291 3.43164C15.0985 3.06223 15.5692 2.81066 16.0816 2.70874C16.5939 2.60683 17.125 2.65913 17.6077 2.85905C18.0903 3.05898 18.5029 3.39753 18.7931 3.8319C19.0833 4.26628 19.2383 4.77696 19.2383 5.29938C19.2383 5.99992 18.96 6.67177 18.4646 7.16712C17.9693 7.66248 17.2974 7.94077 16.5969 7.94077ZM16.5969 4.41892C16.4227 4.41892 16.2525 4.47056 16.1077 4.5673C15.9629 4.66405 15.8501 4.80156 15.7834 4.96244C15.7168 5.12332 15.6994 5.30036 15.7333 5.47115C15.7673 5.64194 15.8512 5.79883 15.9743 5.92196C16.0974 6.0451 16.2543 6.12895 16.4251 6.16293C16.5959 6.1969 16.7729 6.17946 16.9338 6.11282C17.0947 6.04618 17.2322 5.93333 17.329 5.78854C17.4257 5.64375 17.4773 5.47352 17.4773 5.29938C17.4773 5.06587 17.3846 4.84192 17.2195 4.6768C17.0543 4.51168 16.8304 4.41892 16.5969 4.41892Z" fill="#39486E"/>
</svg>
