<svg width="16" height="16" viewBox="0 0 16 16" fill="none" xmlns="http://www.w3.org/2000/svg">
<path fill-rule="evenodd" clip-rule="evenodd" d="M14.4381 15.5194L14.3484 15.4419L11.5065 12.5966C10.3936 13.3902 9.03263 13.857 7.5634 13.857C3.79802 13.857 0.748535 10.7933 0.748535 7.01783C0.748535 3.24232 3.79802 0.178711 7.5634 0.178711C11.3288 0.178711 14.3783 3.24232 14.3783 7.01783C14.3783 8.64887 13.8089 10.1474 12.8589 11.323L15.652 14.1194C16.0141 14.482 16.0148 15.0701 15.6537 15.4336C15.3248 15.7646 14.8094 15.7952 14.4456 15.525L14.4381 15.5194ZM12.494 7.01786C12.494 4.28185 10.2849 2.0668 7.56342 2.0668C4.84197 2.0668 2.63288 4.28185 2.63288 7.01786C2.63288 9.75386 4.84197 11.9689 7.56342 11.9689C10.2849 11.9689 12.494 9.75386 12.494 7.01786Z" fill="#39486E"/>
</svg>
