<svg width="23" height="24" viewBox="0 0 23 24" fill="none" xmlns="http://www.w3.org/2000/svg">
<path fill-rule="evenodd" clip-rule="evenodd" d="M0.772949 10.4047C0.772949 4.91158 5.20942 0.456543 10.6845 0.456543C16.1596 0.456543 20.596 4.91158 20.596 10.4047C20.596 12.9016 19.6794 15.1839 18.1653 16.9309L22.6321 21.4031C23.03 21.8015 23.0309 22.4482 22.634 22.8476C22.2732 23.2107 21.7079 23.2444 21.3092 22.9483L21.195 22.8495L16.6789 18.328C15.0144 19.5986 12.9374 20.3529 10.6845 20.3529C5.20942 20.3529 0.772949 15.8979 0.772949 10.4047ZM18.5156 10.4048C18.5156 6.06156 15.0084 2.54266 10.6845 2.54266C6.3606 2.54266 2.85342 6.06156 2.85342 10.4048C2.85342 14.748 6.3606 18.2669 10.6845 18.2669C15.0084 18.2669 18.5156 14.748 18.5156 10.4048Z" fill="#39486E"/>
</svg>
