<svg width="18" height="20" viewBox="0 0 18 20" fill="none" xmlns="http://www.w3.org/2000/svg">
<path fill-rule="evenodd" clip-rule="evenodd" d="M13.4741 0.547363C14.9194 0.547363 16.1482 1.51568 16.4925 2.87425C16.8045 2.99379 17.0324 3.29071 17.0324 3.6676C17.0324 4.05852 16.7749 4.3461 16.4641 4.46183C16.1189 5.79396 14.8933 6.78784 13.4467 6.78784C12.0195 6.78784 10.8075 5.82043 10.4438 4.51522H1.59078C1.12391 4.51522 0.743164 4.13448 0.743164 3.6676C0.743164 3.20073 1.12391 2.81998 1.59078 2.81998H10.4712C10.8349 1.51477 12.0469 0.547363 13.4741 0.547363ZM13.4741 5.0926C12.6815 5.0926 12.0491 4.46025 12.0491 3.6676C12.0491 2.87495 12.6815 2.2426 13.4741 2.2426C14.2668 2.2426 14.8991 2.87495 14.8991 3.6676C14.8991 4.46025 14.2668 5.0926 13.4741 5.0926Z" fill="#39486E"/>
<path fill-rule="evenodd" clip-rule="evenodd" d="M13.3646 13.3066C14.7973 13.3066 16.0131 14.2815 16.3717 15.5942C16.7703 15.6709 17.0324 16.0312 17.0324 16.4269C17.0324 16.8393 16.7354 17.1844 16.3443 17.2594C15.9858 18.5722 14.7699 19.5471 13.3372 19.5471C11.91 19.5471 10.698 18.5797 10.3342 17.2745H1.59078C1.12391 17.2745 0.743164 16.8938 0.743164 16.4269C0.743164 15.96 1.12391 15.5793 1.59078 15.5793H10.3616C10.7254 14.2741 11.9374 13.3066 13.3646 13.3066ZM13.3372 17.8793C12.5414 17.8793 11.9122 17.2438 11.9122 16.4816V16.4269C11.9122 15.6373 12.5688 15.0019 13.3372 15.0019C14.1299 15.0019 14.7622 15.6342 14.7622 16.4269C14.7622 17.2257 14.1237 17.8793 13.3372 17.8793Z" fill="#39486E"/>
<path fill-rule="evenodd" clip-rule="evenodd" d="M16.2122 9.19938H7.35918C6.99545 7.89417 5.78343 6.92676 4.35622 6.92676C2.90962 6.92676 1.6841 7.92064 1.3389 9.25277C1.02808 9.3685 0.770508 9.65608 0.770508 10.047C0.770508 10.4348 1.00943 10.7307 1.34001 10.8455C1.68671 12.1755 2.91116 13.1672 4.35622 13.1672C5.78343 13.1672 6.99545 12.1998 7.35918 10.8946H16.2122C16.679 10.8946 17.0598 10.5139 17.0598 10.047C17.0598 9.58012 16.679 9.19938 16.2122 9.19938ZM4.32884 11.472C3.53619 11.472 2.90384 10.8396 2.90384 10.047C2.90384 9.25435 3.53619 8.622 4.32884 8.622C5.12149 8.622 5.75384 9.25435 5.75384 10.047C5.75384 10.8396 5.12149 11.472 4.32884 11.472Z" fill="#39486E"/>
</svg>
