<svg width="28" height="32" viewBox="0 0 28 32" fill="none" xmlns="http://www.w3.org/2000/svg">
<path fill-rule="evenodd" clip-rule="evenodd" d="M21.7388 0.090332C24.0992 0.090332 26.0875 1.72594 26.5449 3.9811C27.0261 4.06333 27.4019 4.4652 27.4019 5.00552C27.4019 5.55185 26.9777 5.94877 26.4978 6.03002C26.04 8.23908 24.0529 9.9207 21.692 9.9207C19.3349 9.9207 17.3503 8.2444 16.8884 6.04051H1.44954C0.880067 6.04051 0.414551 5.57499 0.414551 5.00552C0.414551 4.43605 0.880067 3.97053 1.44954 3.97053H16.9351C17.3971 1.76663 19.3816 0.090332 21.7388 0.090332ZM21.7388 7.85073C20.1578 7.85073 18.8936 6.58652 18.8936 5.00552C18.8936 3.42452 20.1578 2.16031 21.7388 2.16031C23.3198 2.16031 24.584 3.42452 24.584 5.00552C24.584 6.58652 23.3198 7.85073 21.7388 7.85073Z" fill="#39486E"/>
<path fill-rule="evenodd" clip-rule="evenodd" d="M26.4137 25.7562H26.3554C25.8935 23.5523 23.9089 21.876 21.5518 21.876C19.1946 21.876 17.2101 23.5523 16.7481 25.7562H1.44954C0.880067 25.7562 0.414551 26.2217 0.414551 26.7912C0.414551 27.3606 0.880067 27.8262 1.44954 27.8262H16.7014C17.1633 30.03 19.1479 31.7063 21.505 31.7063C23.8622 31.7063 25.8467 30.03 26.3086 27.8262H26.367C26.9364 27.8262 27.4019 27.3606 27.4019 26.7912C27.4019 26.2285 26.9898 25.7562 26.4137 25.7562ZM21.505 29.6831C19.923 29.6831 18.6598 28.4179 18.6598 26.8847V26.7912C18.6598 25.2112 19.9697 23.946 21.505 23.946C23.086 23.946 24.3502 25.2102 24.3502 26.7912C24.3502 28.3742 23.084 29.6831 21.505 29.6831Z" fill="#39486E"/>
<path fill-rule="evenodd" clip-rule="evenodd" d="M26.4138 14.8636H10.975C10.513 12.6597 8.5285 10.9834 6.17135 10.9834C3.81047 10.9834 1.82337 12.665 1.36555 14.8741C0.885662 14.9553 0.461426 15.3523 0.461426 15.8986C0.461426 16.4437 0.842985 16.8447 1.36575 16.9241C1.82396 19.1327 3.81083 20.8138 6.17135 20.8138C8.52849 20.8138 10.513 19.1375 10.975 16.9336H26.4138C26.9833 16.9336 27.4488 16.4681 27.4488 15.8986C27.4488 15.3291 26.9833 14.8636 26.4138 14.8636ZM6.1246 18.7438C4.5436 18.7438 3.27939 17.4796 3.27939 15.8986C3.27939 14.3176 4.5436 13.0534 6.1246 13.0534C7.7056 13.0534 8.96981 14.3176 8.96981 15.8986C8.96981 17.4796 7.7056 18.7438 6.1246 18.7438Z" fill="#39486E"/>
</svg>
