<svg width="64" height="64" viewBox="0 0 64 64" fill="none" xmlns="http://www.w3.org/2000/svg">
<path d="M0.806152 32.2941C0.806152 15.0661 14.7722 1.1001 32.0002 1.1001C49.2281 1.1001 63.1942 15.0661 63.1942 32.2941C63.1942 49.5221 49.2281 63.4881 32.0002 63.4881C14.7722 63.4881 0.806152 49.5221 0.806152 32.2941Z" fill="white" stroke="#BBC1CF"/>
<path d="M22.2983 36.709C22.2983 38.6439 20.7177 40.2246 18.7827 40.2246C16.8478 40.2246 15.2671 38.6439 15.2671 36.709C15.2671 34.774 16.8478 33.1934 18.7827 33.1934H22.2983V36.709Z" fill="#E01E5A"/>
<path d="M24.0698 36.709C24.0698 34.774 25.6505 33.1934 27.5854 33.1934C29.5204 33.1934 31.1011 34.774 31.1011 36.709V45.5116C31.1011 47.4466 29.5204 49.0273 27.5854 49.0273C25.6505 49.0273 24.0698 47.4466 24.0698 45.5116V36.709Z" fill="#E01E5A"/>
<path d="M27.5854 22.592C25.6505 22.592 24.0698 21.0114 24.0698 19.0764C24.0698 17.1415 25.6505 15.5608 27.5854 15.5608C29.5204 15.5608 31.1011 17.1415 31.1011 19.0764V22.592H27.5854Z" fill="#36C5F0"/>
<path d="M27.5854 24.3635C29.5203 24.3635 31.101 25.9442 31.101 27.8791C31.101 29.8141 29.5203 31.3948 27.5854 31.3948H18.7827C16.8478 31.3948 15.2671 29.8141 15.2671 27.8791C15.2671 25.9442 16.8478 24.3635 18.7827 24.3635H27.5854Z" fill="#36C5F0"/>
<path d="M41.7021 27.8791C41.7021 25.9442 43.2828 24.3635 45.2178 24.3635C47.1527 24.3635 48.7334 25.9442 48.7334 27.8791C48.7334 29.8141 47.1527 31.3948 45.2178 31.3948H41.7021V27.8791Z" fill="#2EB67D"/>
<path d="M39.9311 27.8791C39.9311 29.814 38.3505 31.3947 36.4155 31.3947C34.4806 31.3947 32.8999 29.814 32.8999 27.8791V19.0764C32.8999 17.1415 34.4806 15.5608 36.4155 15.5608C38.3505 15.5608 39.9311 17.1415 39.9311 19.0764V27.8791Z" fill="#2EB67D"/>
<path d="M36.4155 41.9961C38.3505 41.9961 39.9311 43.5768 39.9311 45.5117C39.9311 47.4467 38.3505 49.0273 36.4155 49.0273C34.4806 49.0273 32.8999 47.4467 32.8999 45.5117V41.9961H36.4155Z" fill="#ECB22E"/>
<path d="M36.4155 40.2246C34.4806 40.2246 32.8999 38.6439 32.8999 36.709C32.8999 34.774 34.4806 33.1934 36.4155 33.1934H45.2182C47.1531 33.1934 48.7338 34.774 48.7338 36.709C48.7338 38.6439 47.1531 40.2246 45.2182 40.2246H36.4155Z" fill="#ECB22E"/>
</svg>
