<svg width="18" height="15" viewBox="0 0 18 15" fill="none" xmlns="http://www.w3.org/2000/svg">
<path d="M8.96507 0.178711C6.66943 0.178711 4.58582 1.10499 3.06585 2.6001C3.04513 2.61707 3.02306 2.63675 3.00052 2.65937C2.97798 2.68201 2.9584 2.70417 2.94153 2.72494C1.45278 4.25121 0.531738 6.34193 0.531738 8.64392C0.531738 10.9023 1.40927 13.0305 3.00052 14.6285C3.33177 14.9611 3.86996 14.9623 4.2026 14.631C4.53524 14.2998 4.53637 13.7616 4.20512 13.4289C3.12589 12.3452 2.4584 10.961 2.28005 9.46221H3.62021C4.08966 9.46221 4.47021 9.08165 4.47021 8.61221C4.47021 8.14277 4.08966 7.76221 3.62021 7.76221H2.28866C2.45602 6.47604 2.98447 5.30259 3.769 4.347L4.64895 5.22694C4.98089 5.55888 5.51908 5.55888 5.85103 5.22694C6.18297 4.89499 6.18297 4.3568 5.85103 4.02486L5.00352 3.17735C5.88968 2.5269 6.93797 2.08916 8.07471 1.9376V3.2107C8.07471 3.68015 8.45527 4.0607 8.92471 4.0607C9.39415 4.0607 9.77471 3.68015 9.77471 3.2107V1.92734C10.9427 2.0686 12.0198 2.51163 12.9269 3.17756L12.0796 4.02486C11.7477 4.3568 11.7477 4.89499 12.0796 5.22694C12.4116 5.55888 12.9498 5.55888 13.2817 5.22694L14.1614 4.34727C14.9458 5.3028 15.4742 6.47615 15.6415 7.76221H14.3699C13.9005 7.76221 13.5199 8.14277 13.5199 8.61221C13.5199 9.08165 13.9005 9.46221 14.3699 9.46221H15.6501C15.4717 10.961 14.8043 12.3452 13.725 13.4289C13.3938 13.7616 13.3949 14.2998 13.7275 14.631C14.0602 14.9623 14.5984 14.9611 14.9296 14.6285C16.5209 13.0305 17.3984 10.9023 17.3984 8.64392C17.3984 6.34187 16.4774 4.2511 14.9885 2.72482C14.9717 2.70409 14.9521 2.68197 14.9296 2.65937C14.9071 2.63679 14.8851 2.61714 14.8644 2.60019C13.3444 1.10503 11.2608 0.178711 8.96507 0.178711Z" fill="#39486E"/>
<path d="M11.7291 7.52348C11.9824 7.12823 11.8673 6.60249 11.472 6.34922C11.0768 6.09594 10.551 6.21104 10.2978 6.6063L8.59477 9.264C7.98744 9.41196 7.53662 9.95954 7.53662 10.6124C7.53662 11.3789 8.15796 12.0002 8.92442 12.0002C9.69089 12.0002 10.3122 11.3789 10.3122 10.6124C10.3122 10.3829 10.2565 10.1663 10.1578 9.97563L11.7291 7.52348Z" fill="#39486E"/>
</svg>
